<svg width="16" height="16" viewBox="0 0 16 16" fill="none" xmlns="http://www.w3.org/2000/svg">
<g id="icons/Scatter Up/Line">
<g id="Shape">
<path d="M13.3333 8.66671C13.7015 8.66671 14 8.36823 14 8.00004C14 7.63185 13.7015 7.33337 13.3333 7.33337C12.9651 7.33337 12.6667 7.63185 12.6667 8.00004C12.6667 8.36823 12.9651 8.66671 13.3333 8.66671Z" fill="#FCFCFD"/>
<path d="M13.3333 11.3334C13.7015 11.3334 14 11.0349 14 10.6667C14 10.2985 13.7015 10 13.3333 10C12.9651 10 12.6667 10.2985 12.6667 10.6667C12.6667 11.0349 12.9651 11.3334 13.3333 11.3334Z" fill="#FCFCFD"/>
<path d="M13.3333 14C13.7015 14 14 13.7016 14 13.3334C14 12.9652 13.7015 12.6667 13.3333 12.6667C12.9651 12.6667 12.6667 12.9652 12.6667 13.3334C12.6667 13.7016 12.9651 14 13.3333 14Z" fill="#FCFCFD"/>
<path d="M8 11.3334C8.36819 11.3334 8.66667 11.0349 8.66667 10.6667C8.66667 10.2985 8.36819 10 8 10C7.63181 10 7.33333 10.2985 7.33333 10.6667C7.33333 11.0349 7.63181 11.3334 8 11.3334Z" fill="#FCFCFD"/>
<path d="M8 14C8.36819 14 8.66667 13.7016 8.66667 13.3334C8.66667 12.9652 8.36819 12.6667 8 12.6667C7.63181 12.6667 7.33333 12.9652 7.33333 13.3334C7.33333 13.7016 7.63181 14 8 14Z" fill="#FCFCFD"/>
<path d="M2.66667 14C3.03486 14 3.33333 13.7016 3.33333 13.3334C3.33333 12.9652 3.03486 12.6667 2.66667 12.6667C2.29848 12.6667 2 12.9652 2 13.3334C2 13.7016 2.29848 14 2.66667 14Z" fill="#FCFCFD"/>
</g>
<g id="Shape_2">
<path fill-rule="evenodd" clip-rule="evenodd" d="M13.3333 6C12.2288 6 11.3333 5.10457 11.3333 4C11.3333 2.89543 12.2288 2 13.3333 2C14.4379 2 15.3333 2.89543 15.3333 4C15.3333 5.10457 14.4379 6 13.3333 6ZM13.3333 4.66667C12.9651 4.66667 12.6667 4.36819 12.6667 4C12.6667 3.63181 12.9651 3.33333 13.3333 3.33333C13.7015 3.33333 14 3.63181 14 4C14 4.36819 13.7015 4.66667 13.3333 4.66667Z" fill="#FCFCFD"/>
<path fill-rule="evenodd" clip-rule="evenodd" d="M8 8.66667C6.89543 8.66667 6 7.77124 6 6.66667C6 5.5621 6.89543 4.66667 8 4.66667C9.10457 4.66667 10 5.5621 10 6.66667C10 7.77124 9.10457 8.66667 8 8.66667ZM8 7.33333C7.63181 7.33333 7.33333 7.03486 7.33333 6.66667C7.33333 6.29848 7.63181 6 8 6C8.36819 6 8.66667 6.29848 8.66667 6.66667C8.66667 7.03486 8.36819 7.33333 8 7.33333Z" fill="#FCFCFD"/>
<path fill-rule="evenodd" clip-rule="evenodd" d="M0.666668 9.33333C0.666668 10.4379 1.5621 11.3333 2.66667 11.3333C3.77124 11.3333 4.66667 10.4379 4.66667 9.33333C4.66667 8.22876 3.77124 7.33333 2.66667 7.33333C1.5621 7.33333 0.666668 8.22876 0.666668 9.33333ZM2 9.33333C2 9.70152 2.29848 10 2.66667 10C3.03486 10 3.33333 9.70152 3.33333 9.33333C3.33333 8.96514 3.03486 8.66667 2.66667 8.66667C2.29848 8.66667 2 8.96514 2 9.33333Z" fill="#FCFCFD"/>
</g>
</g>
</svg>
