<svg width="20" height="20" viewBox="0 0 20 20" fill="none" xmlns="http://www.w3.org/2000/svg">
<g id="icons/Heart">
<path id="Not Filled" d="M9.6538 4.36873L10 4.70096L10.3462 4.36873C11.2301 3.52052 12.4287 3 13.75 3C16.4654 3 18.6667 5.20127 18.6667 7.91667C18.6667 10.3697 17.3277 12.3031 15.6384 13.7698C13.9486 15.2367 11.9604 16.1884 10.7983 16.6665C10.282 16.8789 9.718 16.8789 9.20171 16.6665C8.03956 16.1884 6.05136 15.2368 4.36162 13.7698C2.67229 12.3032 1.33333 10.3697 1.33333 7.91667C1.33333 5.20127 3.5346 3 6.25 3C7.57127 3 8.76992 3.52052 9.6538 4.36873Z" stroke="#989898"/>
</g>
</svg>
