<svg width="16" height="16" viewBox="0 0 16 16" fill="none" xmlns="http://www.w3.org/2000/svg">
<g id="icons/Loading/Line">
<g id="Shape">
<path d="M8 1.33333C7.63181 1.33333 7.33334 1.63181 7.33334 1.99999V3.99999C7.33334 4.36818 7.63181 4.66666 8 4.66666C8.36819 4.66666 8.66667 4.36818 8.66667 3.99999V1.99999C8.66667 1.63181 8.36819 1.33333 8 1.33333Z" fill="#FCFCFD"/>
<path d="M8 11.3333C7.63181 11.3333 7.33334 11.6318 7.33334 12V14C7.33334 14.3682 7.63181 14.6667 8 14.6667C8.36819 14.6667 8.66667 14.3682 8.66667 14V12C8.66667 11.6318 8.36819 11.3333 8 11.3333Z" fill="#FCFCFD"/>
<path d="M14 7.33333C14.3682 7.33333 14.6667 7.6318 14.6667 8C14.6667 8.36819 14.3682 8.66666 14 8.66666H12C11.6318 8.66666 11.3333 8.36818 11.3333 8C11.3333 7.6318 11.6318 7.33333 12 7.33333H14Z" fill="#FCFCFD"/>
<path d="M4.66667 8C4.66667 7.6318 4.36819 7.33333 4 7.33333H2C1.63181 7.33333 1.33334 7.6318 1.33334 8C1.33334 8.36818 1.63181 8.66666 2 8.66666H4C4.36819 8.66666 4.66667 8.36819 4.66667 8Z" fill="#FCFCFD"/>
<path d="M11.7713 3.28602C12.0316 3.02567 12.4537 3.02567 12.7141 3.28602C12.9744 3.54636 12.9744 3.96847 12.7141 4.22882L11.2999 5.64304C11.0395 5.90339 10.6174 5.90339 10.3571 5.64304C10.0967 5.38269 10.0967 4.96058 10.3571 4.70023L11.7713 3.28602Z" fill="#FCFCFD"/>
<path d="M5.64296 10.357C5.38261 10.0966 4.9605 10.0966 4.70015 10.357L3.28593 11.7712C3.02558 12.0315 3.02558 12.4537 3.28593 12.714C3.54628 12.9744 3.96839 12.9744 4.22874 12.714L5.64296 11.2998C5.90331 11.0394 5.90331 10.6173 5.64296 10.357Z" fill="#FCFCFD"/>
<path d="M12.7141 11.7713C12.9744 12.0316 12.9744 12.4537 12.7141 12.7141C12.4537 12.9744 12.0316 12.9744 11.7713 12.7141L10.357 11.2999C10.0967 11.0395 10.0967 10.6174 10.357 10.3571C10.6174 10.0967 11.0395 10.0967 11.2999 10.3571L12.7141 11.7713Z" fill="#FCFCFD"/>
<path d="M5.64302 5.64295C5.90337 5.3826 5.90337 4.96049 5.64302 4.70014L4.22881 3.28593C3.96846 3.02558 3.54635 3.02558 3.286 3.28593C3.02565 3.54628 3.02565 3.96839 3.286 4.22873L4.70021 5.64295C4.96056 5.9033 5.38267 5.9033 5.64302 5.64295Z" fill="#FCFCFD"/>
</g>
</g>
</svg>
